<svg xmlns="http://www.w3.org/2000/svg" width="40" height="40" viewBox="0 0 40 40"><title>rbac_multipleUsers</title><circle cx="20" cy="20" r="20" style="fill:#deedf7"/><path d="M30,28H20a1.814,1.814,0,0,0-2,2v2H32V30a1.814,1.814,0,0,0-2-2" style="fill:#66a9eb;fill-rule:evenodd"/><path d="M23.741,26.863a5.513,5.513,0,0,0,6.619-6.619,5.457,5.457,0,0,0-4.1-4.1,5.512,5.512,0,0,0-6.618,6.619,5.454,5.454,0,0,0,4.1,4.1" style="fill:#66a9eb;fill-rule:evenodd"/><path d="M20.094,20h-10a1.814,1.814,0,0,0-2,2v2h14V22a1.814,1.814,0,0,0-2-2" style="fill:#66a9eb;fill-rule:evenodd"/><path d="M13.835,18.862a5.513,5.513,0,0,0,6.619-6.619,5.457,5.457,0,0,0-4.1-4.1A5.512,5.512,0,0,0,9.734,14.76a5.454,5.454,0,0,0,4.1,4.1" style="fill:#66a9eb;fill-rule:evenodd"/></svg>