<svg xmlns="http://www.w3.org/2000/svg" width="40" height="40" viewBox="0 0 40 40"><title>rbac_user</title><circle cx="20" cy="20" r="20" style="fill:#deedf7"/><path d="M27.429,22.472l-1.656-.86a7.435,7.435,0,0,1-11.523.029l-1.775.983a4.369,4.369,0,0,0-2.2,3.9L10.354,32H29.73V26.353a4.358,4.358,0,0,0-2.3-3.881" style="fill:#66a9eb;fill-rule:evenodd"/><path d="M20,8a6.579,6.579,0,1,0,6.58,6.579A6.579,6.579,0,0,0,20,8Zm0,11.158a4.579,4.579,0,1,1,4.58-4.579A4.584,4.584,0,0,1,20,19.158Z" style="fill:#66a9eb;fill-rule:evenodd"/></svg>