<svg xmlns="http://www.w3.org/2000/svg" width="32" height="32" viewBox="0 0 32 32"><title>Artboard 42</title><rect width="32" height="32" fill="none"/><circle cx="11" cy="8" r="1" fill="#231f20"/><circle cx="11" cy="16" r="1" fill="#231f20"/><circle cx="11" cy="24" r="1" fill="#231f20"/><path d="M24,21h2V5a2,2,0,0,0-2-2H8A2,2,0,0,0,6,5V27a2,2,0,0,0,2,2h8V27H8V21H24ZM8,5H24v6H8Zm0,8H24v6H8Z" fill="#231f20"/><polygon points="28 25 26 25 26 23 24 23 24 25 22 25 22 27 24 27 24 29 26 29 26 27 28 27 28 25" fill="#231f20"/><rect width="32" height="32" fill="none"/></svg>