<svg xmlns="http://www.w3.org/2000/svg" viewBox="0 0 361 416.943"><title>Spectrum_ProtectPlus-white</title><path d="M178.429,31l153.525,88.232.008,178.472L178.429,385.941,24.9,297.705V119.233L178.429,31M180.5,0,0,103.732V313.2L180.5,416.943,361,313.2V103.732L180.5,0Z" fill="#fff"/><path d="M178.425,66.76,62.241,129.466V231.746c0,71.375,116.184,114.647,116.184,114.647S294.609,303.12,294.609,231.746V129.466ZM136.824,293.1c-37.633-25.813-45.536-47.642-45.536-61.408V203.322h87.138V98.415L180.5,97.3l89.213,48.152v57.874H178.425V316.309A280.361,280.361,0,0,1,136.824,293.1Z" fill="#fff"/></svg>