<svg xmlns="http://www.w3.org/2000/svg" viewBox="0 0 87 100"><defs><style>.cls-1{fill:#56acf2;}</style></defs><title>Spectrum_ProtectPlus</title><g id="Layer_1" data-name="Layer 1"><path class="cls-1" d="M43,7.47,80,28.73V71.26L43,92.53,6,71.26V28.73L43,7.47M43.5,0,0,25V75l43.5,25L87,75V25L43.5,0Z"/><path class="cls-1" d="M43,16.09,15,31.2V55.85c0,17.2,28,27.63,28,27.63S71,73.05,71,55.85V31.2ZM33,70.64c-9.07-6.22-11-11.48-11-14.8V49H43V23.72l.5-.27L65,35.05V49H43V76.23A67.57,67.57,0,0,1,33,70.64Z"/></g></svg>