<svg xmlns="http://www.w3.org/2000/svg" viewBox="0 0 168 214"><title>Spectrum_ProtectPlus</title><g id="Layer_1" data-name="Layer 1"><path d="M67,31.47l37,21.26V95.26L67,116.53,30,95.26V52.73L67,31.47M67.5,24,24,49V99l43.5,25L111,99V49L67.5,24Z"/><path d="M67,40.09,39,55.2V79.85c0,17.2,28,27.63,28,27.63S95,97.05,95,79.85V55.2ZM57,94.64c-9.07-6.22-11-11.48-11-14.8V73H67V47.72l.5-.27L89,59.05V73H67v27.23A67.57,67.57,0,0,1,57,94.64Z"/><path d="M29,132.74v15H27.6v-15Z"/><path d="M38.45,132.74a5.85,5.85,0,0,1,3.57.93,3.2,3.2,0,0,1,1.24,2.72,3.58,3.58,0,0,1-.68,2.13,3.17,3.17,0,0,1-1.92,1.25v0A3.53,3.53,0,0,1,43,141a3.64,3.64,0,0,1,.86,2.47,3.82,3.82,0,0,1-1.37,3.18,6.32,6.32,0,0,1-4,1.08H32.11v-15Zm0,6.57a3.93,3.93,0,0,0,2.47-.69,2.22,2.22,0,0,0,.89-1.85q0-2.81-3.4-2.81H33.54v5.36Zm0,7.2q3.93,0,3.93-3.09,0-2.9-3.95-2.9H33.54v6Z"/><path d="M48.13,132.74l5.19,13.15,5.17-13.15h2.1v15H59.16v-13h0l-5.12,13H52.65l-5.15-13h0v13H46v-15Z"/><path d="M32.38,155.58a7,7,0,0,1,4.38,1.26,4.25,4.25,0,0,1,1.63,3.57H35.2a2.22,2.22,0,0,0-.77-1.7,3.44,3.44,0,0,0-2.17-.57,2.79,2.79,0,0,0-1.66.45,1.45,1.45,0,0,0-.63,1.25,1.11,1.11,0,0,0,.39.95,3.77,3.77,0,0,0,1.1.52q.71.23,2.5.67a12.66,12.66,0,0,1,2.88,1,4,4,0,0,1,1.53,1.4,3.91,3.91,0,0,1,.52,2.09,4.42,4.42,0,0,1-.76,2.54,4.65,4.65,0,0,1-2.21,1.69,8.79,8.79,0,0,1-3.28.58,7.26,7.26,0,0,1-4.59-1.4,4.59,4.59,0,0,1-1.79-3.83V166h3.19a2.47,2.47,0,0,0,.9,2,3.71,3.71,0,0,0,2.39.72,4.2,4.2,0,0,0,2.13-.47,1.52,1.52,0,0,0,.81-1.4,1.37,1.37,0,0,0-.44-1,3.27,3.27,0,0,0-1.18-.68,25,25,0,0,0-2.48-.66,11.07,11.07,0,0,1-2.94-1.07A4.09,4.09,0,0,1,27.26,162a3.72,3.72,0,0,1-.48-1.94,3.91,3.91,0,0,1,.81-2.46,4.77,4.77,0,0,1,2.11-1.55A7.38,7.38,0,0,1,32.38,155.58Z"/><path d="M46.6,159.78a4.48,4.48,0,0,1,3.59,1.58,6.35,6.35,0,0,1,1.34,4.26,6.15,6.15,0,0,1-1.29,4,4.26,4.26,0,0,1-3.48,1.58,3.69,3.69,0,0,1-3.25-1.64h0v5.17h-3V160.07h2.83v1.39h0A3.58,3.58,0,0,1,46.6,159.78Zm-3.23,5.75a4.2,4.2,0,0,0,.67,2.52A2.24,2.24,0,0,0,46,169a2.21,2.21,0,0,0,1.94-.92,4.36,4.36,0,0,0,.64-2.52,4.24,4.24,0,0,0-.69-2.57,2.27,2.27,0,0,0-1.93-.93,2.2,2.2,0,0,0-1.9.92A4.38,4.38,0,0,0,43.37,165.53Z"/><path d="M58.07,159.78a5.22,5.22,0,0,1,2.73.71,4.91,4.91,0,0,1,1.88,2.07,6.84,6.84,0,0,1,.68,3.12c0,.11,0,.29,0,.55H55.5a3.11,3.11,0,0,0,.68,2,2.48,2.48,0,0,0,2,.72,2.87,2.87,0,0,0,1.5-.41,1.85,1.85,0,0,0,.87-1h2.63a4.84,4.84,0,0,1-5.08,3.65,6.32,6.32,0,0,1-2.76-.65,4.72,4.72,0,0,1-2-2,6.17,6.17,0,0,1-.76-3.1,6.08,6.08,0,0,1,.77-3,5,5,0,0,1,2-2A5.77,5.77,0,0,1,58.07,159.78Zm2.29,4.56a3.13,3.13,0,0,0-.78-1.76A2.24,2.24,0,0,0,58,162a2.35,2.35,0,0,0-1.72.62,2.64,2.64,0,0,0-.73,1.69Z"/><path d="M70.1,159.78a5.52,5.52,0,0,1,3.59,1.12,4,4,0,0,1,1.51,3H72.28A2,2,0,0,0,70.08,162a2.16,2.16,0,0,0-1.86,1,4.36,4.36,0,0,0-.68,2.56,4.29,4.29,0,0,0,.65,2.48A2.09,2.09,0,0,0,70,169a2.24,2.24,0,0,0,2.37-2.21h2.88a5,5,0,0,1-1.67,3.31A5.38,5.38,0,0,1,70,171.22a5.33,5.33,0,0,1-3.95-1.54,5.46,5.46,0,0,1-1.53-4,6,6,0,0,1,1.51-4.28A5.29,5.29,0,0,1,70.1,159.78Z"/><path d="M80.7,156.82v3.25h2.18v2H80.7v5.38A1,1,0,0,0,82,168.7a4.35,4.35,0,0,0,.92-.08V171a11.47,11.47,0,0,1-1.76.1,4.5,4.5,0,0,1-2.56-.59,2.31,2.31,0,0,1-.84-2v-6.36H75.92v-2h1.81v-3.25Z"/><path d="M90.76,159.78a1.81,1.81,0,0,1,.65.11v2.77a5.1,5.1,0,0,0-1.07-.1q-2.94,0-2.94,3.49v4.89h-3V160.07h2.83v2h0a3.79,3.79,0,0,1,3.46-2.31Z"/><path d="M95.61,160.07v6.15a4,4,0,0,0,.4,2,1.59,1.59,0,0,0,1.51.69,2,2,0,0,0,1.77-.74,4.05,4.05,0,0,0,.54-2.35v-5.71h3v10.86H100v-1.51h-.06a3.67,3.67,0,0,1-3.34,1.81,3.77,3.77,0,0,1-3-1.08,5.08,5.08,0,0,1-.91-3.33v-6.74Z"/><path d="M111,159.78a3.12,3.12,0,0,1,3.17,1.81,3.82,3.82,0,0,1,3.3-1.81,3.91,3.91,0,0,1,3,1,4,4,0,0,1,1,2.83v7.29h-3v-6.28a3.31,3.31,0,0,0-.43-2,1.67,1.67,0,0,0-1.4-.55q-2,0-2,2.73v6.07h-3v-6.41a3,3,0,0,0-.44-1.89,1.72,1.72,0,0,0-1.37-.5,1.81,1.81,0,0,0-1.44.68,2.69,2.69,0,0,0-.58,1.79v6.32h-3V160.07h2.81v1.47h0A3.86,3.86,0,0,1,111,159.78Z"/><path d="M34,179.14a5.3,5.3,0,0,1,3.78,1.3,5.14,5.14,0,0,1,0,7A5.29,5.29,0,0,1,34,188.75H30.54v5.38h-3.3v-15Zm-.86,7.06a3.56,3.56,0,0,0,2.13-.52,2,2,0,0,0,.7-1.72,2,2,0,0,0-.68-1.7,3.39,3.39,0,0,0-2.13-.55H30.54v4.49Z"/><path d="M46.68,183a1.81,1.81,0,0,1,.65.11v2.77a5.1,5.1,0,0,0-1.07-.1q-2.94,0-2.94,3.49v4.89h-3V183.27h2.83v2h0A3.79,3.79,0,0,1,46.68,183Z"/><path d="M53.19,183a5.42,5.42,0,0,1,4.12,1.59,5.76,5.76,0,0,1,1.51,4.15,5.65,5.65,0,0,1-1.54,4.15,5.48,5.48,0,0,1-4.08,1.56,5.39,5.39,0,0,1-4.09-1.58,5.73,5.73,0,0,1-1.51-4.13,5.67,5.67,0,0,1,1.54-4.18A5.47,5.47,0,0,1,53.19,183Zm-2.62,5.73a4.22,4.22,0,0,0,.67,2.56,2.58,2.58,0,0,0,3.94,0,4.29,4.29,0,0,0,.66-2.54,4.23,4.23,0,0,0-.68-2.58,2.34,2.34,0,0,0-2-.9,2.27,2.27,0,0,0-1.93.9A4.27,4.27,0,0,0,50.57,188.71Z"/><path d="M63.93,180v3.25h2.18v2H63.93v5.38a1,1,0,0,0,1.26,1.26,4.35,4.35,0,0,0,.92-.08v2.33a11.47,11.47,0,0,1-1.76.1,4.5,4.5,0,0,1-2.56-.59,2.31,2.31,0,0,1-.84-2v-6.36H59.14v-2h1.81V180Z"/><path d="M72.14,183a5.22,5.22,0,0,1,2.73.71,4.91,4.91,0,0,1,1.88,2.07,6.84,6.84,0,0,1,.68,3.12c0,.11,0,.29,0,.55H69.58a3.11,3.11,0,0,0,.68,2,2.48,2.48,0,0,0,2,.72,2.87,2.87,0,0,0,1.5-.41,1.85,1.85,0,0,0,.87-1h2.63a4.84,4.84,0,0,1-5.08,3.65,6.32,6.32,0,0,1-2.76-.65,4.72,4.72,0,0,1-2-2,6.17,6.17,0,0,1-.76-3.1,6.08,6.08,0,0,1,.77-3,5,5,0,0,1,2-2A5.77,5.77,0,0,1,72.14,183Zm2.29,4.56a3.13,3.13,0,0,0-.78-1.76,2.24,2.24,0,0,0-1.62-.55,2.35,2.35,0,0,0-1.72.62,2.64,2.64,0,0,0-.73,1.69Z"/><path d="M84.17,183a5.52,5.52,0,0,1,3.59,1.12,4,4,0,0,1,1.51,3H86.35a2,2,0,0,0-2.21-1.87,2.16,2.16,0,0,0-1.86,1,4.36,4.36,0,0,0-.68,2.56,4.29,4.29,0,0,0,.65,2.48,2.09,2.09,0,0,0,1.83.95A2.24,2.24,0,0,0,86.46,190h2.88a5,5,0,0,1-1.67,3.31,5.38,5.38,0,0,1-3.56,1.14,5.33,5.33,0,0,1-3.95-1.54,5.46,5.46,0,0,1-1.53-4,6,6,0,0,1,1.51-4.28A5.29,5.29,0,0,1,84.17,183Z"/><path d="M94.77,180v3.25H97v2H94.77v5.38A1,1,0,0,0,96,191.9a4.35,4.35,0,0,0,.92-.08v2.33a11.47,11.47,0,0,1-1.76.1,4.5,4.5,0,0,1-2.56-.59,2.31,2.31,0,0,1-.84-2v-6.36H90v-2h1.81V180Z"/><path d="M110.55,179.14a5.3,5.3,0,0,1,3.78,1.3,5.14,5.14,0,0,1,0,7,5.29,5.29,0,0,1-3.76,1.29h-3.51v5.38h-3.3v-15Zm-.86,7.06a3.56,3.56,0,0,0,2.13-.52,2,2,0,0,0,.7-1.72,2,2,0,0,0-.68-1.7,3.39,3.39,0,0,0-2.13-.55h-2.65v4.49Z"/><path d="M119.93,179.14v15h-3v-15Z"/><path d="M124.93,183.27v6.15a4,4,0,0,0,.4,2,1.59,1.59,0,0,0,1.51.69,2,2,0,0,0,1.77-.74,4.05,4.05,0,0,0,.54-2.35v-5.71h3v10.86H129.3v-1.51h-.06a3.67,3.67,0,0,1-3.34,1.81,3.77,3.77,0,0,1-3-1.08,5.08,5.08,0,0,1-.91-3.33v-6.74Z"/><path d="M138.52,183a5.76,5.76,0,0,1,3.41.88,3.36,3.36,0,0,1,1.38,2.58h-2.83a1.42,1.42,0,0,0-.57-1.12,2.6,2.6,0,0,0-1.47-.35,2.43,2.43,0,0,0-1.25.25.89.89,0,0,0-.14,1.39,2.32,2.32,0,0,0,.83.44,9,9,0,0,0,1.23.32,12.44,12.44,0,0,1,2.88.82,3.07,3.07,0,0,1,1.23,1,2.57,2.57,0,0,1,.39,1.45,3.26,3.26,0,0,1-1.33,2.8,7.24,7.24,0,0,1-7.35-.05,3.45,3.45,0,0,1-1.37-2.79h2.83a1.59,1.59,0,0,0,.65,1.33,2.63,2.63,0,0,0,1.64.49,2.48,2.48,0,0,0,1.4-.37,1.16,1.16,0,0,0,.56-1,.85.85,0,0,0-.35-.69,3.25,3.25,0,0,0-1-.48,18.93,18.93,0,0,0-2-.48,9.14,9.14,0,0,1-1.87-.57,3,3,0,0,1-1.25-.93,2.31,2.31,0,0,1-.43-1.42,3.38,3.38,0,0,1,.51-1.87,3.15,3.15,0,0,1,1.58-1.21A7.36,7.36,0,0,1,138.52,183Z"/></g></svg>