<svg xmlns="http://www.w3.org/2000/svg" viewBox="0 0 568 136"><defs><style>.cls-1{font-size:33px;font-family:HelvNeueforIBM-Light, Helvetica Neue for IBM;}.cls-10,.cls-11,.cls-2,.cls-3,.cls-4,.cls-5,.cls-6,.cls-7,.cls-8,.cls-9{font-family:HelveticaNeueforIBM-Bold, Helvetica Neue for IBM;font-weight:700;}.cls-11,.cls-2{letter-spacing:0.02em;}.cls-3,.cls-6{letter-spacing:0em;}.cls-5{letter-spacing:0.02em;}.cls-10,.cls-11,.cls-12,.cls-6,.cls-7,.cls-8,.cls-9{fill:#56acf2;}.cls-7{letter-spacing:-0.01em;}.cls-8{letter-spacing:-0.01em;}.cls-9{letter-spacing:-0.03em;}</style></defs><title>Spectrum_ProtectPlus</title><g id="Layer_1" data-name="Layer 1"><text class="cls-1" transform="translate(129 81.65)">IBM <tspan class="cls-2" x="64.48" y="0">S</tspan><tspan class="cls-3" x="85.73" y="0">pe</tspan><tspan class="cls-2" x="124.08" y="0">c</tspan><tspan class="cls-4" x="142.99" y="0">t</tspan><tspan class="cls-5" x="154.77" y="0">r</tspan><tspan class="cls-3" x="167.67" y="0">um </tspan><tspan class="cls-6" x="223.93" y="0">P</tspan><tspan class="cls-7" x="244.96" y="0">r</tspan><tspan class="cls-8" x="256.97" y="0">o</tspan><tspan class="cls-9" x="276.07" y="0">t</tspan><tspan class="cls-10" x="286.93" y="0">e</tspan><tspan class="cls-11" x="305.64" y="0">c</tspan><tspan class="cls-10" x="324.55" y="0">t Plus </tspan></text><path class="cls-12" d="M75,27.47l37,21.26V91.26L75,112.53,38,91.26V48.73L75,27.47M75.5,20,32,45V95l43.5,25L119,95V45L75.5,20Z"/><path class="cls-12" d="M75,36.09,47,51.2V75.85c0,17.2,28,27.63,28,27.63s28-10.43,28-27.63V51.2ZM65,90.64c-9.07-6.22-11-11.48-11-14.8V69H75V43.72l.5-.27L97,55.05V69H75V96.23A67.57,67.57,0,0,1,65,90.64Z"/></g></svg>