<svg xmlns="http://www.w3.org/2000/svg" viewBox="0 0 568 136"><title>Spectrum_ProtectPlus</title><g id="Layer_1" data-name="Layer 1"><path d="M133.75,59.08V82.65h-2.24V59.08Z"/><path d="M148.57,59.08a9.19,9.19,0,0,1,5.61,1.47,5,5,0,0,1,1.95,4.27,5.63,5.63,0,0,1-1.07,3.35,5,5,0,0,1-3,2v.07a5.56,5.56,0,0,1,3.63,1.86A5.73,5.73,0,0,1,157,75.95a6,6,0,0,1-2.15,5q-2.14,1.7-6.27,1.7h-10V59.08Zm0,10.33a6.18,6.18,0,0,0,3.88-1.09,3.49,3.49,0,0,0,1.4-2.9q0-4.42-5.35-4.42h-7.69v8.42Zm0,11.32q6.17,0,6.17-4.85,0-4.55-6.21-4.55h-7.72v9.4Z"/><path d="M163.78,59.08l8.15,20.66,8.12-20.66h3.3V82.65h-2.24V62.29H181L173,82.65h-2.11l-8.08-20.36h-.07V82.65h-2.24V59.08Z"/><path d="M203.51,58.52a11,11,0,0,1,6.88,2A6.68,6.68,0,0,1,213,66.11h-5a3.5,3.5,0,0,0-1.21-2.67,5.4,5.4,0,0,0-3.42-.89,4.38,4.38,0,0,0-2.61.71,2.28,2.28,0,0,0-1,2,1.74,1.74,0,0,0,.61,1.48,5.92,5.92,0,0,0,1.73.83q1.12.36,3.93,1.06a19.84,19.84,0,0,1,4.52,1.58,6.25,6.25,0,0,1,2.41,2.19,6.14,6.14,0,0,1,.83,3.28,6.93,6.93,0,0,1-1.19,4,7.31,7.31,0,0,1-3.46,2.66,13.81,13.81,0,0,1-5.15.91A11.39,11.39,0,0,1,196.73,81a7.21,7.21,0,0,1-2.82-6v-.17h5A3.89,3.89,0,0,0,200.34,78a5.84,5.84,0,0,0,3.76,1.14,6.6,6.6,0,0,0,3.35-.74,2.39,2.39,0,0,0,1.27-2.19,2.15,2.15,0,0,0-.69-1.62,5.17,5.17,0,0,0-1.85-1.07,38.84,38.84,0,0,0-3.89-1,17.41,17.41,0,0,1-4.62-1.68,6.4,6.4,0,0,1-2.21-2.16,5.85,5.85,0,0,1-.76-3.05A6.15,6.15,0,0,1,196,61.76a7.51,7.51,0,0,1,3.32-2.44A11.6,11.6,0,0,1,203.51,58.52Z"/><path d="M225.85,65.12a7,7,0,0,1,5.64,2.48,10,10,0,0,1,2.11,6.7,9.67,9.67,0,0,1-2,6.34,6.7,6.7,0,0,1-5.46,2.48A5.79,5.79,0,0,1,221,80.53h-.07v8.12h-4.69V65.58h4.46v2.18h.07A5.62,5.62,0,0,1,225.85,65.12Zm-5.08,9a6.6,6.6,0,0,0,1.06,4,3.52,3.52,0,0,0,3,1.45,3.46,3.46,0,0,0,3.05-1.45,6.84,6.84,0,0,0,1-4,6.65,6.65,0,0,0-1.09-4,3.57,3.57,0,0,0-3-1.47,3.45,3.45,0,0,0-3,1.45A6.89,6.89,0,0,0,220.77,74.17Z"/><path d="M243.87,65.12a8.22,8.22,0,0,1,4.29,1.12,7.73,7.73,0,0,1,3,3.25,10.76,10.76,0,0,1,1.07,4.9c0,.18,0,.46,0,.86H239.85a4.89,4.89,0,0,0,1.07,3.18A3.91,3.91,0,0,0,244,79.58a4.51,4.51,0,0,0,2.36-.64,2.91,2.91,0,0,0,1.37-1.57h4.13q-1.82,5.74-8,5.74a10,10,0,0,1-4.34-1A7.4,7.4,0,0,1,236.35,79a9.69,9.69,0,0,1-1.19-4.87,9.54,9.54,0,0,1,1.2-4.75,7.87,7.87,0,0,1,3.2-3.2A9.07,9.07,0,0,1,243.87,65.12Zm3.6,7.16a4.93,4.93,0,0,0-1.22-2.77,3.51,3.51,0,0,0-2.54-.86,3.7,3.7,0,0,0-2.71,1,4.15,4.15,0,0,0-1.15,2.66Z"/><path d="M262.78,65.12a8.68,8.68,0,0,1,5.64,1.77,6.33,6.33,0,0,1,2.38,4.7h-4.59a3.14,3.14,0,0,0-3.46-2.94,3.39,3.39,0,0,0-2.92,1.52,6.84,6.84,0,0,0-1.07,4,6.72,6.72,0,0,0,1,3.89,3.29,3.29,0,0,0,2.87,1.49q3.2,0,3.73-3.47h4.52a7.83,7.83,0,0,1-2.62,5.2,9.35,9.35,0,0,1-11.8-.63,8.58,8.58,0,0,1-2.41-6.32,9.39,9.39,0,0,1,2.38-6.73A8.32,8.32,0,0,1,262.78,65.12Z"/><path d="M279.45,60.47v5.11h3.43v3.14h-3.43v8.45a1.59,1.59,0,0,0,2,2,6.83,6.83,0,0,0,1.45-.13v3.66a17.89,17.89,0,0,1-2.77.17,7.07,7.07,0,0,1-4-.92,3.64,3.64,0,0,1-1.32-3.2v-10h-2.84V65.58h2.84V60.47Z"/><path d="M295.25,65.12a2.85,2.85,0,0,1,1,.17v4.36a8,8,0,0,0-1.68-.17Q290,69.48,290,75v7.69h-4.69V65.58h4.46v3.17h.07a6,6,0,0,1,5.45-3.63Z"/><path d="M302.87,65.58v9.67a6.19,6.19,0,0,0,.63,3.07,2.5,2.5,0,0,0,2.38,1.09,3.22,3.22,0,0,0,2.79-1.16,6.37,6.37,0,0,0,.84-3.7v-9h4.69V82.65h-4.46V80.27h-.1a5.76,5.76,0,0,1-5.25,2.84q-3.33,0-4.77-1.7t-1.44-5.23V65.58Z"/><path d="M327.06,65.12q3.73,0,5,2.84a6,6,0,0,1,5.18-2.84,6.14,6.14,0,0,1,4.7,1.62,6.29,6.29,0,0,1,1.5,4.45V82.65h-4.69V72.78a5.22,5.22,0,0,0-.68-3.1,2.63,2.63,0,0,0-2.2-.86q-3.13,0-3.13,4.29v9.54h-4.69V72.58a4.65,4.65,0,0,0-.69-3,2.7,2.7,0,0,0-2.14-.79A2.84,2.84,0,0,0,323,69.89a4.22,4.22,0,0,0-.91,2.82v9.93h-4.69V65.58h4.42V67.9h.07A6.07,6.07,0,0,1,327.06,65.12Z"/><path d="M365.54,59.08a8.33,8.33,0,0,1,5.94,2,7.2,7.2,0,0,1,2.18,5.51,7.19,7.19,0,0,1-2.18,5.53,8.32,8.32,0,0,1-5.91,2h-5.51v8.45h-5.18V59.08Zm-1.35,11.09a5.59,5.59,0,0,0,3.35-.82,3.16,3.16,0,0,0,1.11-2.71A3.22,3.22,0,0,0,367.57,64a5.34,5.34,0,0,0-3.35-.86h-4.16v7.06Z"/><path d="M385.44,65.12a2.85,2.85,0,0,1,1,.17v4.36a8,8,0,0,0-1.68-.17q-4.62,0-4.62,5.48v7.69h-4.69V65.58h4.46v3.17H380a6,6,0,0,1,5.45-3.63Z"/><path d="M395.67,65.12a8.52,8.52,0,0,1,6.47,2.49,9.05,9.05,0,0,1,2.38,6.52,8.88,8.88,0,0,1-2.42,6.52,8.61,8.61,0,0,1-6.42,2.46,8.47,8.47,0,0,1-6.43-2.49,9,9,0,0,1-2.38-6.48,8.91,8.91,0,0,1,2.43-6.57A8.6,8.6,0,0,1,395.67,65.12Zm-4.12,9a6.64,6.64,0,0,0,1.06,4,4.05,4.05,0,0,0,6.19,0,6.75,6.75,0,0,0,1-4,6.63,6.63,0,0,0-1.07-4.06,3.67,3.67,0,0,0-3.12-1.42,3.56,3.56,0,0,0-3,1.42A6.71,6.71,0,0,0,391.54,74.13Z"/><path d="M412.53,60.47v5.11H416v3.14h-3.43v8.45a1.59,1.59,0,0,0,2,2A6.82,6.82,0,0,0,416,79v3.66a17.89,17.89,0,0,1-2.77.17,7.06,7.06,0,0,1-4-.92,3.63,3.63,0,0,1-1.32-3.2v-10H405V65.58h2.84V60.47Z"/><path d="M425.43,65.12a8.21,8.21,0,0,1,4.29,1.12,7.72,7.72,0,0,1,3,3.25,10.75,10.75,0,0,1,1.07,4.9q0,.26,0,.86H421.41a4.91,4.91,0,0,0,1.07,3.18,3.91,3.91,0,0,0,3.09,1.14,4.5,4.5,0,0,0,2.36-.64,2.91,2.91,0,0,0,1.37-1.57h4.13q-1.81,5.74-8,5.74a10,10,0,0,1-4.34-1A7.41,7.41,0,0,1,417.91,79a9.71,9.71,0,0,1-1.19-4.87,9.53,9.53,0,0,1,1.21-4.75,7.86,7.86,0,0,1,3.2-3.2A9.07,9.07,0,0,1,425.43,65.12Zm3.6,7.16a4.93,4.93,0,0,0-1.22-2.77,3.52,3.52,0,0,0-2.54-.86,3.69,3.69,0,0,0-2.71,1,4.16,4.16,0,0,0-1.16,2.66Z"/><path d="M444.34,65.12A8.68,8.68,0,0,1,450,66.89a6.33,6.33,0,0,1,2.38,4.7h-4.59a3.14,3.14,0,0,0-3.46-2.94,3.39,3.39,0,0,0-2.92,1.52,6.84,6.84,0,0,0-1.07,4,6.74,6.74,0,0,0,1,3.89,3.29,3.29,0,0,0,2.87,1.49q3.2,0,3.73-3.47h4.52a7.83,7.83,0,0,1-2.62,5.2,8.46,8.46,0,0,1-5.59,1.8,8.37,8.37,0,0,1-6.2-2.43,8.58,8.58,0,0,1-2.41-6.32A9.39,9.39,0,0,1,438,67.63,8.32,8.32,0,0,1,444.34,65.12Z"/><path d="M461,60.47v5.11h3.43v3.14H461v8.45a1.59,1.59,0,0,0,2,2,6.82,6.82,0,0,0,1.45-.13v3.66a17.89,17.89,0,0,1-2.77.17,7.06,7.06,0,0,1-4-.92,3.63,3.63,0,0,1-1.32-3.2v-10h-2.84V65.58h2.84V60.47Z"/><path d="M485.79,59.08a8.33,8.33,0,0,1,5.94,2,7.2,7.2,0,0,1,2.18,5.51,7.19,7.19,0,0,1-2.18,5.53,8.32,8.32,0,0,1-5.91,2h-5.51v8.45h-5.18V59.08Zm-1.35,11.09a5.59,5.59,0,0,0,3.35-.82,3.16,3.16,0,0,0,1.11-2.71A3.22,3.22,0,0,0,487.82,64a5.34,5.34,0,0,0-3.35-.86h-4.16v7.06Z"/><path d="M500.54,59.08V82.65h-4.69V59.08Z"/><path d="M508.39,65.58v9.67a6.2,6.2,0,0,0,.63,3.07,2.5,2.5,0,0,0,2.38,1.09,3.22,3.22,0,0,0,2.79-1.16,6.36,6.36,0,0,0,.84-3.7v-9h4.69V82.65h-4.46V80.27h-.1a5.76,5.76,0,0,1-5.25,2.84q-3.33,0-4.77-1.7t-1.44-5.23V65.58Z"/><path d="M529.75,65.12a9.06,9.06,0,0,1,5.36,1.39,5.28,5.28,0,0,1,2.16,4.06h-4.46a2.22,2.22,0,0,0-.89-1.77,4.07,4.07,0,0,0-2.31-.54,3.84,3.84,0,0,0-2,.4,1.39,1.39,0,0,0-.21,2.18,3.66,3.66,0,0,0,1.3.69,14,14,0,0,0,1.93.5,19.56,19.56,0,0,1,4.52,1.29,4.83,4.83,0,0,1,1.93,1.58,4,4,0,0,1,.61,2.28,5.13,5.13,0,0,1-2.1,4.41,11.38,11.38,0,0,1-11.55-.08,5.43,5.43,0,0,1-2.16-4.39h4.46a2.49,2.49,0,0,0,1,2.1A4.14,4.14,0,0,0,530,80a3.91,3.91,0,0,0,2.2-.58,1.82,1.82,0,0,0,.87-1.6,1.33,1.33,0,0,0-.54-1.09,5.12,5.12,0,0,0-1.54-.76,29.68,29.68,0,0,0-3.07-.76A14.35,14.35,0,0,1,525,74.3a4.73,4.73,0,0,1-2-1.47,3.62,3.62,0,0,1-.68-2.23,5.3,5.3,0,0,1,.81-2.94,5,5,0,0,1,2.48-1.9A11.56,11.56,0,0,1,529.75,65.12Z"/><path d="M75,28.47l37,21.26V92.26L75,113.53,38,92.26V49.73L75,28.47M75.5,21,32,46V96l43.5,25L119,96V46L75.5,21Z"/><path d="M75,37.09,47,52.2V76.85c0,17.2,28,27.63,28,27.63s28-10.43,28-27.63V52.2ZM65,91.64c-9.07-6.22-11-11.48-11-14.8V70H75V44.72l.5-.27L97,56.05V70H75V97.23A67.57,67.57,0,0,1,65,91.64Z"/></g></svg>