<svg xmlns="http://www.w3.org/2000/svg" viewBox="0 0 168 214"><title>Spectrum_ProtectPlus</title><g id="Layer_1" data-name="Layer 1"><polygon points="67 73 89 73 89 59.05 67.5 47.45 67 47.72 67 73"/><path d="M46,79.84c0,3.32,1.9,8.58,11,14.8a67.56,67.56,0,0,0,10,5.59V73H46Z"/><path d="M104,52.73,67,31.47,30,52.73V95.26l37,21.26,37-21.26ZM95,79.85c0,17.2-28,27.63-28,27.63S39,97.05,39,79.85V55.2L67,40.09,95,55.2Z"/><path d="M0,0V214H168V0ZM24,49,67.5,24,111,49V99L67.5,124,24,99ZM87.3,162.09a3.79,3.79,0,0,1,3.46-2.31,1.81,1.81,0,0,1,.65.11v2.77a5.1,5.1,0,0,0-1.07-.1q-2.94,0-2.94,3.49v4.89h-3V160.07h2.83v2ZM68.19,168A2.09,2.09,0,0,0,70,169a2.24,2.24,0,0,0,2.37-2.21h2.88a5,5,0,0,1-1.67,3.31A5.38,5.38,0,0,1,70,171.22a5.33,5.33,0,0,1-3.95-1.54,5.46,5.46,0,0,1-1.53-4,6,6,0,0,1,1.51-4.28,5.29,5.29,0,0,1,4-1.6,5.52,5.52,0,0,1,3.59,1.12,4,4,0,0,1,1.51,3H72.28A2,2,0,0,0,70.08,162a2.16,2.16,0,0,0-1.86,1,4.36,4.36,0,0,0-.68,2.56A4.29,4.29,0,0,0,68.19,168Zm-12,.22a2.48,2.48,0,0,0,2,.72,2.87,2.87,0,0,0,1.5-.41,1.85,1.85,0,0,0,.87-1h2.63a4.84,4.84,0,0,1-5.08,3.65,6.32,6.32,0,0,1-2.76-.65,4.72,4.72,0,0,1-2-2,6.17,6.17,0,0,1-.76-3.1,6.08,6.08,0,0,1,.77-3,5,5,0,0,1,2-2,5.77,5.77,0,0,1,2.74-.67,5.22,5.22,0,0,1,2.73.71,4.91,4.91,0,0,1,1.88,2.07,6.84,6.84,0,0,1,.68,3.12c0,.11,0,.29,0,.55H55.5A3.11,3.11,0,0,0,56.19,168.25ZM43,141a3.64,3.64,0,0,1,.86,2.47,3.82,3.82,0,0,1-1.37,3.18,6.32,6.32,0,0,1-4,1.08H32.11v-15h6.34a5.85,5.85,0,0,1,3.57.93,3.2,3.2,0,0,1,1.24,2.72,3.58,3.58,0,0,1-.68,2.13,3.17,3.17,0,0,1-1.92,1.25v0A3.53,3.53,0,0,1,43,141Zm-2.48,19.07h2.83v1.39h0a3.58,3.58,0,0,1,3.23-1.68,4.48,4.48,0,0,1,3.59,1.58,6.35,6.35,0,0,1,1.34,4.26,6.15,6.15,0,0,1-1.29,4,4.26,4.26,0,0,1-3.48,1.58,3.69,3.69,0,0,1-3.25-1.64h0v5.17h-3Zm7-25.3h0v13H46v-15h2.1l5.19,13.15,5.17-13.15h2.1v15H59.16v-13h0l-5.12,13H52.65Zm-18.48-2v15H27.6v-15ZM26.27,166h3.19a2.47,2.47,0,0,0,.9,2,3.71,3.71,0,0,0,2.39.72,4.2,4.2,0,0,0,2.13-.47,1.52,1.52,0,0,0,.81-1.4,1.37,1.37,0,0,0-.44-1,3.27,3.27,0,0,0-1.18-.68,25,25,0,0,0-2.48-.66,11.07,11.07,0,0,1-2.94-1.07A4.09,4.09,0,0,1,27.26,162a3.72,3.72,0,0,1-.48-1.94,3.91,3.91,0,0,1,.81-2.46,4.77,4.77,0,0,1,2.11-1.55,7.38,7.38,0,0,1,2.69-.5,7,7,0,0,1,4.38,1.26,4.25,4.25,0,0,1,1.63,3.57H35.2a2.22,2.22,0,0,0-.77-1.7,3.44,3.44,0,0,0-2.17-.57,2.79,2.79,0,0,0-1.66.45,1.45,1.45,0,0,0-.63,1.25,1.11,1.11,0,0,0,.39.95,3.77,3.77,0,0,0,1.1.52q.71.23,2.5.67a12.66,12.66,0,0,1,2.88,1,4,4,0,0,1,1.53,1.4,3.91,3.91,0,0,1,.52,2.09,4.42,4.42,0,0,1-.76,2.54,4.65,4.65,0,0,1-2.21,1.69,8.79,8.79,0,0,1-3.28.58,7.26,7.26,0,0,1-4.59-1.4,4.59,4.59,0,0,1-1.79-3.83ZM37.8,187.46A5.29,5.29,0,0,1,34,188.75H30.54v5.38h-3.3v-15H34a5.3,5.3,0,0,1,3.78,1.3,5.14,5.14,0,0,1,0,7Zm9.53-1.61a5.1,5.1,0,0,0-1.07-.1q-2.94,0-2.94,3.49v4.89h-3V183.27h2.83v2h0A3.79,3.79,0,0,1,46.68,183a1.81,1.81,0,0,1,.65.11Zm9.94,7a5.48,5.48,0,0,1-4.08,1.56,5.39,5.39,0,0,1-4.09-1.58,5.73,5.73,0,0,1-1.51-4.13,5.67,5.67,0,0,1,1.54-4.18A5.47,5.47,0,0,1,53.19,183a5.42,5.42,0,0,1,4.12,1.59,5.76,5.76,0,0,1,1.51,4.15A5.65,5.65,0,0,1,57.28,192.86Zm8.83-7.59H63.93v5.38a1,1,0,0,0,1.26,1.26,4.35,4.35,0,0,0,.92-.08v2.33a11.47,11.47,0,0,1-1.76.1,4.5,4.5,0,0,1-2.56-.59,2.31,2.31,0,0,1-.84-2v-6.36H59.14v-2h1.81V180h3v3.25h2.18Zm11.3,4.16H69.58a3.11,3.11,0,0,0,.68,2,2.48,2.48,0,0,0,2,.72,2.87,2.87,0,0,0,1.5-.41,1.85,1.85,0,0,0,.87-1h2.63a4.84,4.84,0,0,1-5.08,3.65,6.32,6.32,0,0,1-2.76-.65,4.72,4.72,0,0,1-2-2,6.17,6.17,0,0,1-.76-3.1,6.08,6.08,0,0,1,.77-3,5,5,0,0,1,2-2,5.77,5.77,0,0,1,2.74-.67,5.22,5.22,0,0,1,2.73.71,4.91,4.91,0,0,1,1.88,2.07,6.84,6.84,0,0,1,.68,3.12C77.43,189,77.42,189.17,77.41,189.43Zm.31-21v-6.36H75.92v-2h1.81v-3.25h3v3.25h2.18v2H80.7v5.38A1,1,0,0,0,82,168.7a4.35,4.35,0,0,0,.92-.08V171a11.47,11.47,0,0,1-1.76.1,4.5,4.5,0,0,1-2.56-.59A2.31,2.31,0,0,1,77.72,168.43Zm9.94,24.85a5.38,5.38,0,0,1-3.56,1.14,5.33,5.33,0,0,1-3.95-1.54,5.46,5.46,0,0,1-1.53-4,6,6,0,0,1,1.51-4.28,5.29,5.29,0,0,1,4-1.6,5.52,5.52,0,0,1,3.59,1.12,4,4,0,0,1,1.51,3H86.35a2,2,0,0,0-2.21-1.87,2.16,2.16,0,0,0-1.86,1,4.36,4.36,0,0,0-.68,2.56,4.29,4.29,0,0,0,.65,2.48,2.09,2.09,0,0,0,1.83.95A2.24,2.24,0,0,0,86.46,190h2.88A5,5,0,0,1,87.67,193.28Zm9.29-8H94.77v5.38A1,1,0,0,0,96,191.9a4.35,4.35,0,0,0,.92-.08v2.33a11.47,11.47,0,0,1-1.76.1,4.5,4.5,0,0,1-2.56-.59,2.31,2.31,0,0,1-.84-2v-6.36H90v-2h1.81V180h3v3.25H97Zm5.86-14.34H100v-1.51h-.06a3.67,3.67,0,0,1-3.34,1.81,3.77,3.77,0,0,1-3-1.08,5.08,5.08,0,0,1-.91-3.33v-6.74h3v6.15a4,4,0,0,0,.4,2,1.59,1.59,0,0,0,1.51.69,2,2,0,0,0,1.77-.74,4.05,4.05,0,0,0,.54-2.35v-5.71h3Zm11.51,16.53a5.29,5.29,0,0,1-3.76,1.29h-3.51v5.38h-3.3v-15h6.78a5.3,5.3,0,0,1,3.78,1.3,5.14,5.14,0,0,1,0,7Zm5.61,6.67h-3v-15h3Zm1.49-23.2h-3v-6.28a3.31,3.31,0,0,0-.43-2,1.67,1.67,0,0,0-1.4-.55q-2,0-2,2.73v6.07h-3v-6.41a3,3,0,0,0-.44-1.89,1.72,1.72,0,0,0-1.37-.5,1.81,1.81,0,0,0-1.44.68,2.69,2.69,0,0,0-.58,1.79v6.32h-3V160.07h2.81v1.47h0a3.86,3.86,0,0,1,3.32-1.76,3.12,3.12,0,0,1,3.17,1.81,3.82,3.82,0,0,1,3.3-1.81,3.91,3.91,0,0,1,3,1,4,4,0,0,1,1,2.83Zm10.71,23.2H129.3v-1.51h-.06a3.67,3.67,0,0,1-3.34,1.81,3.77,3.77,0,0,1-3-1.08,5.08,5.08,0,0,1-.91-3.33v-6.74h3v6.15a4,4,0,0,0,.4,2,1.59,1.59,0,0,0,1.51.69,2,2,0,0,0,1.77-.74,4.05,4.05,0,0,0,.54-2.35v-5.71h3Zm10.13-.68a7.24,7.24,0,0,1-7.35-.05,3.45,3.45,0,0,1-1.37-2.79h2.83a1.59,1.59,0,0,0,.65,1.33,2.63,2.63,0,0,0,1.64.49,2.48,2.48,0,0,0,1.4-.37,1.16,1.16,0,0,0,.56-1,.85.85,0,0,0-.35-.69,3.25,3.25,0,0,0-1-.48,18.93,18.93,0,0,0-2-.48,9.14,9.14,0,0,1-1.87-.57,3,3,0,0,1-1.25-.93,2.31,2.31,0,0,1-.43-1.42,3.38,3.38,0,0,1,.51-1.87,3.15,3.15,0,0,1,1.58-1.21,7.36,7.36,0,0,1,2.64-.41,5.76,5.76,0,0,1,3.41.88,3.36,3.36,0,0,1,1.38,2.58h-2.83a1.42,1.42,0,0,0-.57-1.12,2.6,2.6,0,0,0-1.47-.35,2.43,2.43,0,0,0-1.25.25.89.89,0,0,0-.14,1.39,2.32,2.32,0,0,0,.83.44,9,9,0,0,0,1.23.32,12.44,12.44,0,0,1,2.88.82,3.07,3.07,0,0,1,1.23,1,2.57,2.57,0,0,1,.39,1.45A3.26,3.26,0,0,1,142.26,193.45Z"/><path d="M42.4,143.42q0-2.9-3.95-2.9H33.54v6h4.93Q42.4,146.51,42.4,143.42Z"/><path d="M72,185.23a2.35,2.35,0,0,0-1.72.62,2.64,2.64,0,0,0-.73,1.69h4.85a3.13,3.13,0,0,0-.78-1.76A2.24,2.24,0,0,0,72,185.23Z"/><path d="M53.17,185.23a2.27,2.27,0,0,0-1.93.9,4.27,4.27,0,0,0-.67,2.58,4.22,4.22,0,0,0,.67,2.56,2.58,2.58,0,0,0,3.94,0,4.29,4.29,0,0,0,.66-2.54,4.23,4.23,0,0,0-.68-2.58A2.34,2.34,0,0,0,53.17,185.23Z"/><path d="M33.18,181.7H30.54v4.49h2.62a3.56,3.56,0,0,0,2.13-.52,2,2,0,0,0,.7-1.72,2,2,0,0,0-.68-1.7A3.39,3.39,0,0,0,33.18,181.7Z"/><path d="M56.24,162.65a2.64,2.64,0,0,0-.73,1.69h4.85a3.13,3.13,0,0,0-.78-1.76A2.24,2.24,0,0,0,58,162,2.35,2.35,0,0,0,56.24,162.65Z"/><path d="M44,168.05A2.24,2.24,0,0,0,46,169a2.21,2.21,0,0,0,1.94-.92,4.36,4.36,0,0,0,.64-2.52,4.24,4.24,0,0,0-.69-2.57,2.27,2.27,0,0,0-1.93-.93,2.2,2.2,0,0,0-1.9.92,4.38,4.38,0,0,0-.66,2.58A4.2,4.2,0,0,0,44,168.05Z"/><path d="M40.94,138.62a2.22,2.22,0,0,0,.89-1.85q0-2.81-3.4-2.81H33.54v5.36h4.93A3.93,3.93,0,0,0,40.94,138.62Z"/><path d="M109.71,181.7h-2.65v4.49h2.63a3.56,3.56,0,0,0,2.13-.52,2,2,0,0,0,.7-1.72,2,2,0,0,0-.68-1.7A3.39,3.39,0,0,0,109.71,181.7Z"/></g></svg>