<svg xmlns="http://www.w3.org/2000/svg" width="32" height="32" viewBox="0 0 32 32"><title>SPP_32px_white</title><path d="M16,2.825,27.41,9.412V22.587L16,29.175,4.59,22.587V9.412L16,2.825M16,.5,2.576,8.25v15.5L16,31.5l13.424-7.75V8.25L16,.5Z" fill="#fff"/><path d="M16,7.675l6.712,3.639v6.518c0,1.04-.594,2.69-3.426,4.641A21.343,21.343,0,0,1,16,24.3a21.382,21.382,0,0,1-3.286-1.826c-2.831-1.951-3.426-3.6-3.426-4.641V11.314L16,7.675m0-2.291L7.274,10.115v7.717c0,5.385,8.726,8.649,8.726,8.649s8.726-3.264,8.726-8.649V10.115L16,5.384Z" fill="#fff"/><path d="M16,22.284A16.266,16.266,0,0,0,18.489,20.9c2.146-1.478,2.595-2.728,2.595-3.516v-1.74H16Z" fill="#fff"/><polygon points="15.959 9.69 15.959 15.645 10.875 15.645 10.875 12.447 15.959 9.69" fill="#fff"/></svg>