<svg xmlns="http://www.w3.org/2000/svg" width="88.336" height="102" viewBox="0 0 88.336 102"><title>SPP_128px</title><path d="M64,84.675a53.074,53.074,0,0,0,8.19-4.55c7.059-4.863,8.539-8.975,8.539-11.569V62.831H64Z" transform="translate(-19.832 -13)" fill="#61a8dc"/><path d="M64,20.65l37.542,21.674V85.675L64,107.35,26.456,85.675V42.324L64,20.65M64,13,19.832,38.5v51L64,115l44.168-25.5v-51Z" transform="translate(-19.832 -13)" fill="#61a8dc"/><path d="M64,36.607,86.083,48.581V70.027c0,3.424-1.954,8.852-11.271,15.27A70.033,70.033,0,0,1,64,91.305,70.1,70.1,0,0,1,53.188,85.3c-9.316-6.418-11.272-11.846-11.272-15.27V48.581L64,36.607m0-7.536L35.29,44.637v25.39C35.29,87.745,64,98.487,64,98.487s28.71-10.742,28.71-28.46V44.637Z" transform="translate(-19.832 -13)" fill="#61a8dc"/><polygon points="44.035 30.237 44.035 49.831 27.305 49.831 27.305 39.309 44.035 30.237" fill="#61a8dc"/></svg>