<svg xmlns="http://www.w3.org/2000/svg" viewBox="0 0 24 24" fill="#FFFFFF">
<path d="M12,0C5.4,0,0,5.4,0,12s5.4,12,12,12s12-5.4,12-12S18.6,0,12,0z M12,22.5C6.2,22.5,1.5,17.8,1.5,12
		S6.2,1.5,12,1.5S22.5,6.2,22.5,12S17.8,22.5,12,22.5z"/>
<path d="M11,14.6v-3.1c2-0.1,3.3-1,3.3-2.6V8.7c0-1.3-0.9-2.1-2.2-2.1c-1.4,0-2.3,0.9-2.6,2.2L8.1,8.3c0.5-1.6,1.7-3,4-3
			c2.3,0,3.8,1.4,3.8,3.5c0,2.4-1.8,3.5-3.4,3.8v2H11z M10.6,17.7v-0.2c0-0.7,0.4-1.1,1.1-1.1c0.8,0,1.1,0.4,1.1,1.1v0.2
			c0,0.7-0.4,1.1-1.1,1.1C11,18.8,10.6,18.3,10.6,17.7z"/>
</svg>
