<svg xmlns="http://www.w3.org/2000/svg" viewBox="0 0 24 24" fill="#FFFFFF"><rect x="4" y="21" width="16" height="2"/><path d="M4,1v18h16V1H4z M18,17H6V6h12V17z"/><path d="M15.4,11.6c0-0.2,0-0.4,0-0.5l1.1-1l-0.9-1.5L14.2,9c-0.3-0.3-0.7-0.4-1.1-0.6l-0.3-1.2h-1.8l-0.3,1.2
	C10.4,8.6,10.1,8.8,9.8,9L8.5,8.6l-0.9,1.5l1.1,0.9c0,0.2,0,0.4,0,0.5c0,0.2,0,0.4,0,0.5l-1.1,1l0.9,1.5l1.3-0.4
	c0.3,0.3,0.7,0.4,1.1,0.6l0.3,1.2h1.8l0.3-1.2c0.4-0.1,0.8-0.3,1.1-0.6l1.3,0.4l0.9-1.5l-1.1-0.9C15.4,11.9,15.4,11.8,15.4,11.6z
	 M12,12.8c-0.7,0-1.2-0.5-1.2-1.2s0.5-1.2,1.2-1.2s1.2,0.5,1.2,1.2S12.7,12.8,12,12.8z"/></svg>
