<svg xmlns="http://www.w3.org/2000/svg" width="32" height="32" viewBox="0 0 32 32"><title>Artboard 8 copy 8</title><rect width="32" height="32" fill="none"/><path d="M16,30A14,14,0,1,1,30,16,14.015,14.015,0,0,1,16,30ZM16,4A12,12,0,1,0,28,16,12.013,12.013,0,0,0,16,4Z"/><path d="M25.663,14.57l-.517-1.931-.74.2a8.991,8.991,0,1,0-15.438,8.78l1.562-1.248A6.927,6.927,0,0,1,9,16a7,7,0,0,1,13.478-2.647l-4.423,1.185a2.522,2.522,0,1,0,.422,1.958Z"/><path d="M21.473,20.365l1.562,1.248a9.021,9.021,0,0,0,1.926-4.8l-2.109.565A6.914,6.914,0,0,1,21.473,20.365Z"/></svg>