<svg xmlns="http://www.w3.org/2000/svg" width="32" height="32" viewBox="0 0 32 32"><title>Artboard 8 copy 7</title><rect width="32" height="32" fill="none"/><path d="M16,22.946a2.527,2.527,0,1,0,2.527,2.527A2.527,2.527,0,0,0,16,22.946Z"/><path d="M16,22.946a2.527,2.527,0,1,1-2.527,2.527A2.527,2.527,0,0,1,16,22.946Z"/><path d="M16,10.687a13.39,13.39,0,0,0-9.419,3.825,1,1,0,1,0,1.4,1.429,11.378,11.378,0,0,1,7.046-3.208l2-2C16.687,10.7,16.345,10.687,16,10.687Z"/><path d="M5.294,10.9A16.659,16.659,0,0,1,16,7a16.42,16.42,0,0,1,4.191.567L21.818,5.94A18.6,18.6,0,0,0,4.007,9.364,1,1,0,0,0,5.294,10.9Z"/><path d="M25.687,7.727,29.7,3.713,28.287,2.3,23.852,6.734,22.323,8.263l-2.878,2.878-1.69,1.69L13.189,17.4,9.125,21.461,2.3,28.287,3.713,29.7,14.269,19.145A6.417,6.417,0,0,1,16,18.9a6.3,6.3,0,0,1,5.186,2.68,1,1,0,1,0,1.628-1.16,8.378,8.378,0,0,0-6.33-3.49l3.521-3.521a11.365,11.365,0,0,1,4.016,2.532,1,1,0,1,0,1.4-1.429,13.379,13.379,0,0,0-3.883-2.634l2.7-2.7A16.532,16.532,0,0,1,26.706,10.9a1,1,0,0,0,1.287-1.532A18.459,18.459,0,0,0,25.687,7.727Z"/></svg>